<svg width="86" height="86" viewBox="0 0 86 86" fill="none" xmlns="http://www.w3.org/2000/svg">
<path fill-rule="evenodd" clip-rule="evenodd" d="M72.0284 9.14649C74.2288 8.3002 76.5938 9.92439 76.5938 12.2819V73.2344C76.5938 75.0894 75.0894 76.5937 73.2344 76.5937H61.8125V34.9375C61.8125 31.5979 59.1052 28.8906 55.7656 28.8906H41.6562V23.1353C41.6562 21.7453 42.5123 20.4988 43.8097 19.9998L72.0284 9.14649ZM68.5312 24.1875C67.7888 24.1875 67.1875 24.7891 67.1875 25.5312C67.1875 26.2734 67.7888 26.875 68.5312 26.875H71.8906C72.633 26.875 73.2344 26.2734 73.2344 25.5312C73.2344 24.7891 72.633 24.1875 71.8906 24.1875H68.5312ZM67.1875 35.6094C67.1875 34.8672 67.7888 34.2656 68.5312 34.2656H71.8906C72.633 34.2656 73.2344 34.8672 73.2344 35.6094C73.2344 36.3515 72.633 36.9531 71.8906 36.9531H68.5312C67.7888 36.9531 67.1875 36.3515 67.1875 35.6094ZM68.5312 44.3437C67.7888 44.3437 67.1875 44.9453 67.1875 45.6875C67.1875 46.4296 67.7888 47.0312 68.5312 47.0312H71.8906C72.633 47.0312 73.2344 46.4296 73.2344 45.6875C73.2344 44.9453 72.633 44.3437 71.8906 44.3437H68.5312ZM67.1875 55.7656C67.1875 55.0235 67.7888 54.4219 68.5312 54.4219H71.8906C72.633 54.4219 73.2344 55.0235 73.2344 55.7656C73.2344 56.5078 72.633 57.1094 71.8906 57.1094H68.5312C67.7888 57.1094 67.1875 56.5078 67.1875 55.7656ZM68.5312 64.5C67.7888 64.5 67.1875 65.1016 67.1875 65.8437C67.1875 66.5859 67.7888 67.1875 68.5312 67.1875H71.8906C72.633 67.1875 73.2344 66.5859 73.2344 65.8437C73.2344 65.1016 72.633 64.5 71.8906 64.5H68.5312Z" fill="#00CE6D"/>
<path fill-rule="evenodd" clip-rule="evenodd" d="M72.0284 9.14649C74.2288 8.3002 76.5938 9.92439 76.5938 12.2819V73.2344C76.5938 75.0894 75.0894 76.5937 73.2344 76.5937H61.8125V34.9375C61.8125 31.5979 59.1052 28.8906 55.7656 28.8906H41.6562V23.1353C41.6562 21.7453 42.5123 20.4988 43.8097 19.9998L72.0284 9.14649ZM68.5312 24.1875C67.7888 24.1875 67.1875 24.7891 67.1875 25.5312C67.1875 26.2734 67.7888 26.875 68.5312 26.875H71.8906C72.633 26.875 73.2344 26.2734 73.2344 25.5312C73.2344 24.7891 72.633 24.1875 71.8906 24.1875H68.5312ZM67.1875 35.6094C67.1875 34.8672 67.7888 34.2656 68.5312 34.2656H71.8906C72.633 34.2656 73.2344 34.8672 73.2344 35.6094C73.2344 36.3515 72.633 36.9531 71.8906 36.9531H68.5312C67.7888 36.9531 67.1875 36.3515 67.1875 35.6094ZM68.5312 44.3437C67.7888 44.3437 67.1875 44.9453 67.1875 45.6875C67.1875 46.4296 67.7888 47.0312 68.5312 47.0312H71.8906C72.633 47.0312 73.2344 46.4296 73.2344 45.6875C73.2344 44.9453 72.633 44.3437 71.8906 44.3437H68.5312ZM67.1875 55.7656C67.1875 55.0235 67.7888 54.4219 68.5312 54.4219H71.8906C72.633 54.4219 73.2344 55.0235 73.2344 55.7656C73.2344 56.5078 72.633 57.1094 71.8906 57.1094H68.5312C67.7888 57.1094 67.1875 56.5078 67.1875 55.7656ZM68.5312 64.5C67.7888 64.5 67.1875 65.1016 67.1875 65.8437C67.1875 66.5859 67.7888 67.1875 68.5312 67.1875H71.8906C72.633 67.1875 73.2344 66.5859 73.2344 65.8437C73.2344 65.1016 72.633 64.5 71.8906 64.5H68.5312Z" fill="#00CE6D"/>
<path fill-rule="evenodd" clip-rule="evenodd" d="M31.5781 28.8906H36.9531V26.2031C36.9531 24.3478 35.4491 22.8438 33.5938 22.8438H12.7656C10.9103 22.8438 9.40625 24.3478 9.40625 26.2031V73.2344C9.40625 75.0894 10.9103 76.5938 12.7656 76.5938H25.5312V34.9375C25.5312 31.5979 28.2385 28.8906 31.5781 28.8906ZM16.7969 34.9375C16.0547 34.9375 15.4531 35.5391 15.4531 36.2812C15.4531 37.0234 16.0547 37.625 16.7969 37.625H20.1562C20.8984 37.625 21.5 37.0234 21.5 36.2812C21.5 35.5391 20.8984 34.9375 20.1562 34.9375H16.7969ZM15.4531 46.3594C15.4531 45.6172 16.0547 45.0156 16.7969 45.0156H20.1562C20.8984 45.0156 21.5 45.6172 21.5 46.3594C21.5 47.1015 20.8984 47.7031 20.1562 47.7031H16.7969C16.0547 47.7031 15.4531 47.1015 15.4531 46.3594ZM16.7969 55.0938C16.0547 55.0938 15.4531 55.6953 15.4531 56.4375C15.4531 57.1797 16.0547 57.7812 16.7969 57.7812H20.1562C20.8984 57.7812 21.5 57.1797 21.5 56.4375C21.5 55.6953 20.8984 55.0938 20.1562 55.0938H16.7969ZM15.4531 66.5156C15.4531 65.7735 16.0547 65.1719 16.7969 65.1719H20.1562C20.8984 65.1719 21.5 65.7735 21.5 66.5156C21.5 67.258 20.8984 67.8594 20.1562 67.8594H16.7969C16.0547 67.8594 15.4531 67.258 15.4531 66.5156Z" fill="#00CE6D"/>
<path fill-rule="evenodd" clip-rule="evenodd" d="M31.5781 28.8906H36.9531V26.2031C36.9531 24.3478 35.4491 22.8438 33.5938 22.8438H12.7656C10.9103 22.8438 9.40625 24.3478 9.40625 26.2031V73.2344C9.40625 75.0894 10.9103 76.5938 12.7656 76.5938H25.5312V34.9375C25.5312 31.5979 28.2385 28.8906 31.5781 28.8906ZM16.7969 34.9375C16.0547 34.9375 15.4531 35.5391 15.4531 36.2812C15.4531 37.0234 16.0547 37.625 16.7969 37.625H20.1562C20.8984 37.625 21.5 37.0234 21.5 36.2812C21.5 35.5391 20.8984 34.9375 20.1562 34.9375H16.7969ZM15.4531 46.3594C15.4531 45.6172 16.0547 45.0156 16.7969 45.0156H20.1562C20.8984 45.0156 21.5 45.6172 21.5 46.3594C21.5 47.1015 20.8984 47.7031 20.1562 47.7031H16.7969C16.0547 47.7031 15.4531 47.1015 15.4531 46.3594ZM16.7969 55.0938C16.0547 55.0938 15.4531 55.6953 15.4531 56.4375C15.4531 57.1797 16.0547 57.7812 16.7969 57.7812H20.1562C20.8984 57.7812 21.5 57.1797 21.5 56.4375C21.5 55.6953 20.8984 55.0938 20.1562 55.0938H16.7969ZM15.4531 66.5156C15.4531 65.7735 16.0547 65.1719 16.7969 65.1719H20.1562C20.8984 65.1719 21.5 65.7735 21.5 66.5156C21.5 67.258 20.8984 67.8594 20.1562 67.8594H16.7969C16.0547 67.8594 15.4531 67.258 15.4531 66.5156Z" fill="#00CE6D"/>
<path d="M28.2188 9.40625C29.703 9.40625 30.9062 10.6095 30.9062 12.0938V20.1562H25.5312V12.0938C25.5312 10.6095 26.7345 9.40625 28.2188 9.40625Z" fill="#00AF90"/>
<path d="M28.2188 9.40625C29.703 9.40625 30.9062 10.6095 30.9062 12.0938V20.1562H25.5312V12.0938C25.5312 10.6095 26.7345 9.40625 28.2188 9.40625Z" fill="url(#paint0_linear_79_2)" fill-opacity="0.7"/>
<path d="M20.8281 20.1562V16.125C20.8281 14.6408 19.6249 13.4375 18.1406 13.4375C16.6564 13.4375 15.4531 14.6408 15.4531 16.125V20.1562H20.8281Z" fill="#00AF90"/>
<path d="M20.8281 20.1562V16.125C20.8281 14.6408 19.6249 13.4375 18.1406 13.4375C16.6564 13.4375 15.4531 14.6408 15.4531 16.125V20.1562H20.8281Z" fill="url(#paint1_linear_79_2)" fill-opacity="0.7"/>
<path d="M59.125 34.9375C59.125 33.0822 57.6209 31.5781 55.7656 31.5781H31.5781C29.7228 31.5781 28.2188 33.0822 28.2188 34.9375V76.5937H41.6881V72.5484C41.1569 72.3932 40.6465 72.1419 40.1824 71.7939C36.1915 68.8034 33.5938 63.98 33.5938 58.5401C33.5938 53.1001 36.1915 48.277 40.1824 45.2862C41.8592 44.0296 44.1408 44.0296 45.8176 45.2862C49.8085 48.277 52.4062 53.1001 52.4062 58.5401C52.4062 63.98 49.8085 68.8034 45.8176 71.7939C45.3721 72.1278 44.8839 72.373 44.3756 72.5296V76.5937H59.125V34.9375Z" fill="#00AF90"/>
<path d="M59.125 34.9375C59.125 33.0822 57.6209 31.5781 55.7656 31.5781H31.5781C29.7228 31.5781 28.2188 33.0822 28.2188 34.9375V76.5937H41.6881V72.5484C41.1569 72.3932 40.6465 72.1419 40.1824 71.7939C36.1915 68.8034 33.5938 63.98 33.5938 58.5401C33.5938 53.1001 36.1915 48.277 40.1824 45.2862C41.8592 44.0296 44.1408 44.0296 45.8176 45.2862C49.8085 48.277 52.4062 53.1001 52.4062 58.5401C52.4062 63.98 49.8085 68.8034 45.8176 71.7939C45.3721 72.1278 44.8839 72.373 44.3756 72.5296V76.5937H59.125V34.9375Z" fill="#028C4C"/>
<path d="M44.3756 69.5357V59.9065C44.3756 59.1644 43.7739 58.5628 43.0318 58.5628C42.2897 58.5628 41.6881 59.1644 41.6881 59.9065V69.5841C38.3786 67.0749 36.2353 63.0621 36.2353 58.5401C36.2353 53.9903 38.4049 49.9561 41.749 47.45C42.4941 46.8917 43.5059 46.8917 44.251 47.45C47.5951 49.9561 49.7647 53.9903 49.7647 58.5401C49.7647 63.0331 47.6488 67.0233 44.3756 69.5357Z" fill="#00AF90"/>
<path d="M44.3756 69.5357V59.9065C44.3756 59.1644 43.7739 58.5628 43.0318 58.5628C42.2897 58.5628 41.6881 59.1644 41.6881 59.9065V69.5841C38.3786 67.0749 36.2353 63.0621 36.2353 58.5401C36.2353 53.9903 38.4049 49.9561 41.749 47.45C42.4941 46.8917 43.5059 46.8917 44.251 47.45C47.5951 49.9561 49.7647 53.9903 49.7647 58.5401C49.7647 63.0331 47.6488 67.0233 44.3756 69.5357Z" fill="url(#paint2_linear_79_2)" fill-opacity="0.7"/>
<defs>
<linearGradient id="paint0_linear_79_2" x1="43" y1="8.91981" x2="43" y2="76.5938" gradientUnits="userSpaceOnUse">
<stop stop-color="#77C852"/>
<stop offset="1" stop-color="#77C852" stop-opacity="0"/>
</linearGradient>
<linearGradient id="paint1_linear_79_2" x1="43" y1="8.91981" x2="43" y2="76.5937" gradientUnits="userSpaceOnUse">
<stop stop-color="#77C852"/>
<stop offset="1" stop-color="#77C852" stop-opacity="0"/>
</linearGradient>
<linearGradient id="paint2_linear_79_2" x1="43" y1="8.91983" x2="43" y2="76.5938" gradientUnits="userSpaceOnUse">
<stop stop-color="#77C852"/>
<stop offset="1" stop-color="#77C852" stop-opacity="0"/>
</linearGradient>
</defs>
</svg>
