<svg width="159" height="30" viewBox="0 0 159 30" fill="none" xmlns="http://www.w3.org/2000/svg">
<path d="M41.6 15.92L44 17.64C42.62 19.82 40.22 21.26 37.46 21.26C33.2 21.26 29.8 17.82 29.8 13.56C29.8 9.3 33.2 5.84 37.44 5.84C40.16 5.84 42.56 7.28 43.88 9.46L41.46 11.18C40.44 9.58 38.94 8.8 37.46 8.8C34.96 8.8 32.98 10.92 32.98 13.56C32.98 16.18 34.96 18.3 37.46 18.3C39 18.3 40.52 17.52 41.6 15.92ZM45.4297 6.1H48.2697V21H45.4297V6.1ZM57.5134 17.38L59.7734 19.12C58.9134 20.4 57.1334 21.22 55.3334 21.22C52.2934 21.22 49.8534 18.84 49.8534 15.96C49.8534 13.04 52.1934 10.68 55.0934 10.68C57.5934 10.68 59.5134 12.36 60.1334 14.24L54.4934 18.28C54.7534 18.38 55.0334 18.4 55.3334 18.4C56.1934 18.4 57.0534 18.1 57.5134 17.38ZM52.7334 15.96C52.7334 16.2 52.7534 16.42 52.8134 16.62L56.4934 14C56.0934 13.7 55.6334 13.52 55.0934 13.52C53.7934 13.52 52.7334 14.54 52.7334 15.96ZM68.5625 10.9H71.4025V21H68.5625V20.28C68.1225 20.86 67.0225 21.22 66.1025 21.22C63.3425 21.22 61.1425 18.84 61.1425 15.96C61.1425 13.04 63.4025 10.68 66.1025 10.68C67.0025 10.68 68.1225 11.12 68.5625 11.6V10.9ZM66.3825 18.4C67.7025 18.4 68.6825 17.4 68.6825 15.96C68.6825 14.54 67.7025 13.52 66.3825 13.52C65.0825 13.52 64.0225 14.54 64.0225 15.96C64.0225 17.4 65.0825 18.4 66.3825 18.4ZM83.5784 15.96V21H80.7584V15.96C80.7584 14.34 79.8184 13.52 78.6584 13.52C77.3984 13.52 76.2384 14.34 76.2384 15.96V21H73.3984V10.9H76.2384V11.6C76.7984 10.96 77.9784 10.68 78.8984 10.68C81.6584 10.68 83.5784 13.04 83.5784 15.96ZM93.7897 11.86L101.73 5.84V21H98.6297V12.02L93.7897 15.52L88.9497 12.02V21H85.8497V5.84L93.7897 11.86ZM111.141 10.9H113.981V21H111.141V20.28C110.701 20.86 109.601 21.22 108.681 21.22C105.921 21.22 103.721 18.84 103.721 15.96C103.721 13.04 105.981 10.68 108.681 10.68C109.581 10.68 110.701 11.12 111.141 11.6V10.9ZM108.961 18.4C110.281 18.4 111.261 17.4 111.261 15.96C111.261 14.54 110.281 13.52 108.961 13.52C107.661 13.52 106.601 14.54 106.601 15.96C106.601 17.4 107.661 18.4 108.961 18.4ZM122.977 6.1H125.817V21H122.977V20.28C122.537 20.86 121.437 21.22 120.517 21.22C117.757 21.22 115.557 18.84 115.557 15.96C115.557 13.04 117.817 10.68 120.517 10.68C121.417 10.68 122.537 11.12 122.977 11.6V6.1ZM120.797 18.4C122.117 18.4 123.097 17.4 123.097 15.96C123.097 14.54 122.117 13.52 120.797 13.52C119.497 13.52 118.437 14.54 118.437 15.96C118.437 17.4 119.497 18.4 120.797 18.4ZM129.213 9.12C128.333 9.12 127.573 8.38 127.573 7.5C127.573 6.7 128.333 5.94 129.213 5.94C130.173 5.94 130.913 6.68 130.913 7.5C130.913 8.38 130.173 9.12 129.213 9.12ZM130.653 10.9V21H127.813V10.9H130.653ZM142.836 15.96V21H140.016V15.96C140.016 14.34 139.076 13.52 137.916 13.52C136.656 13.52 135.496 14.34 135.496 15.96V21H132.656V10.9H135.496V11.6C136.056 10.96 137.236 10.68 138.156 10.68C140.916 10.68 142.836 13.04 142.836 15.96ZM151.688 10.9H154.528V21H151.688V20.28C151.248 20.86 150.148 21.22 149.228 21.22C146.468 21.22 144.268 18.84 144.268 15.96C144.268 13.04 146.528 10.68 149.228 10.68C150.128 10.68 151.248 11.12 151.688 11.6V10.9ZM149.508 18.4C150.828 18.4 151.808 17.4 151.808 15.96C151.808 14.54 150.828 13.52 149.508 13.52C148.208 13.52 147.148 14.54 147.148 15.96C147.148 17.4 148.208 18.4 149.508 18.4Z" fill="#424242"/>
<g filter="url(#filter0_dd_53_2)">
<path d="M20.6555 2.86041H9.41192C6.34589 2.86041 3.86038 5.34592 3.86038 8.41195V19.6556C3.86038 22.7216 6.34589 25.2071 9.41192 25.2071H20.6555C23.7216 25.2071 26.2071 22.7216 26.2071 19.6556V8.41195C26.2071 5.34592 23.7216 2.86041 20.6555 2.86041Z" fill="#424242"/>
<path d="M20.6555 2.86041H9.41192C6.34589 2.86041 3.86038 5.34592 3.86038 8.41195V19.6556C3.86038 22.7216 6.34589 25.2071 9.41192 25.2071H20.6555C23.7216 25.2071 26.2071 22.7216 26.2071 19.6556V8.41195C26.2071 5.34592 23.7216 2.86041 20.6555 2.86041Z" fill="url(#paint0_linear_53_2)"/>
</g>
<path fill-rule="evenodd" clip-rule="evenodd" d="M21.6058 6.82986C22.0879 6.64446 22.606 7.00028 22.606 7.51677V20.87C22.606 21.2764 22.2764 21.606 21.87 21.606H19.3678V12.4801C19.3678 11.7484 18.7747 11.1553 18.043 11.1553H14.952V9.89449C14.952 9.58996 15.1395 9.31689 15.4238 9.20757L21.6058 6.82986ZM20.8397 10.125C20.677 10.125 20.5453 10.2568 20.5453 10.4194C20.5453 10.582 20.677 10.7138 20.8397 10.7138H21.5756C21.7383 10.7138 21.87 10.582 21.87 10.4194C21.87 10.2568 21.7383 10.125 21.5756 10.125H20.8397ZM20.5453 12.6273C20.5453 12.4647 20.677 12.3329 20.8397 12.3329H21.5756C21.7383 12.3329 21.87 12.4647 21.87 12.6273C21.87 12.7898 21.7383 12.9216 21.5756 12.9216H20.8397C20.677 12.9216 20.5453 12.7898 20.5453 12.6273ZM20.8397 14.5408C20.677 14.5408 20.5453 14.6725 20.5453 14.8351C20.5453 14.9977 20.677 15.1295 20.8397 15.1295H21.5756C21.7383 15.1295 21.87 14.9977 21.87 14.8351C21.87 14.6725 21.7383 14.5408 21.5756 14.5408H20.8397ZM20.5453 17.043C20.5453 16.8804 20.677 16.7486 20.8397 16.7486H21.5756C21.7383 16.7486 21.87 16.8804 21.87 17.043C21.87 17.2056 21.7383 17.3374 21.5756 17.3374H20.8397C20.677 17.3374 20.5453 17.2056 20.5453 17.043ZM20.8397 18.9565C20.677 18.9565 20.5453 19.0883 20.5453 19.2509C20.5453 19.4135 20.677 19.5453 20.8397 19.5453H21.5756C21.7383 19.5453 21.87 19.4135 21.87 19.2509C21.87 19.0883 21.7383 18.9565 21.5756 18.9565H20.8397Z" fill="url(#paint1_linear_53_2)"/>
<path fill-rule="evenodd" clip-rule="evenodd" d="M21.6058 6.82986C22.0879 6.64446 22.606 7.00028 22.606 7.51677V20.87C22.606 21.2764 22.2764 21.606 21.87 21.606H19.3678V12.4801C19.3678 11.7484 18.7747 11.1553 18.043 11.1553H14.952V9.89449C14.952 9.58996 15.1395 9.31689 15.4238 9.20757L21.6058 6.82986ZM20.8397 10.125C20.677 10.125 20.5453 10.2568 20.5453 10.4194C20.5453 10.582 20.677 10.7138 20.8397 10.7138H21.5756C21.7383 10.7138 21.87 10.582 21.87 10.4194C21.87 10.2568 21.7383 10.125 21.5756 10.125H20.8397ZM20.5453 12.6273C20.5453 12.4647 20.677 12.3329 20.8397 12.3329H21.5756C21.7383 12.3329 21.87 12.4647 21.87 12.6273C21.87 12.7898 21.7383 12.9216 21.5756 12.9216H20.8397C20.677 12.9216 20.5453 12.7898 20.5453 12.6273ZM20.8397 14.5408C20.677 14.5408 20.5453 14.6725 20.5453 14.8351C20.5453 14.9977 20.677 15.1295 20.8397 15.1295H21.5756C21.7383 15.1295 21.87 14.9977 21.87 14.8351C21.87 14.6725 21.7383 14.5408 21.5756 14.5408H20.8397ZM20.5453 17.043C20.5453 16.8804 20.677 16.7486 20.8397 16.7486H21.5756C21.7383 16.7486 21.87 16.8804 21.87 17.043C21.87 17.2056 21.7383 17.3374 21.5756 17.3374H20.8397C20.677 17.3374 20.5453 17.2056 20.5453 17.043ZM20.8397 18.9565C20.677 18.9565 20.5453 19.0883 20.5453 19.2509C20.5453 19.4135 20.677 19.5453 20.8397 19.5453H21.5756C21.7383 19.5453 21.87 19.4135 21.87 19.2509C21.87 19.0883 21.7383 18.9565 21.5756 18.9565H20.8397Z" fill="url(#paint2_linear_53_2)"/>
<path fill-rule="evenodd" clip-rule="evenodd" d="M12.7441 11.1553H13.9217V10.5666C13.9217 10.1601 13.5921 9.8306 13.1857 9.8306H8.62274C8.21628 9.8306 7.88678 10.1601 7.88678 10.5666V20.87C7.88678 21.2764 8.21628 21.606 8.62274 21.606H11.4194V12.4801C11.4194 11.7484 12.0125 11.1553 12.7441 11.1553ZM9.50589 12.4801C9.3433 12.4801 9.21151 12.6118 9.21151 12.7744C9.21151 12.937 9.3433 13.0688 9.50589 13.0688H10.2419C10.4044 13.0688 10.5362 12.937 10.5362 12.7744C10.5362 12.6118 10.4044 12.4801 10.2419 12.4801H9.50589ZM9.21151 14.9823C9.21151 14.8197 9.3433 14.6879 9.50589 14.6879H10.2419C10.4044 14.6879 10.5362 14.8197 10.5362 14.9823C10.5362 15.1449 10.4044 15.2767 10.2419 15.2767H9.50589C9.3433 15.2767 9.21151 15.1449 9.21151 14.9823ZM9.50589 16.8958C9.3433 16.8958 9.21151 17.0276 9.21151 17.1902C9.21151 17.3528 9.3433 17.4846 9.50589 17.4846H10.2419C10.4044 17.4846 10.5362 17.3528 10.5362 17.1902C10.5362 17.0276 10.4044 16.8958 10.2419 16.8958H9.50589ZM9.21151 19.3981C9.21151 19.2355 9.3433 19.1037 9.50589 19.1037H10.2419C10.4044 19.1037 10.5362 19.2355 10.5362 19.3981C10.5362 19.5607 10.4044 19.6925 10.2419 19.6925H9.50589C9.3433 19.6925 9.21151 19.5607 9.21151 19.3981Z" fill="url(#paint3_linear_53_2)"/>
<path fill-rule="evenodd" clip-rule="evenodd" d="M12.7441 11.1553H13.9217V10.5666C13.9217 10.1601 13.5921 9.8306 13.1857 9.8306H8.62274C8.21628 9.8306 7.88678 10.1601 7.88678 10.5666V20.87C7.88678 21.2764 8.21628 21.606 8.62274 21.606H11.4194V12.4801C11.4194 11.7484 12.0125 11.1553 12.7441 11.1553ZM9.50589 12.4801C9.3433 12.4801 9.21151 12.6118 9.21151 12.7744C9.21151 12.937 9.3433 13.0688 9.50589 13.0688H10.2419C10.4044 13.0688 10.5362 12.937 10.5362 12.7744C10.5362 12.6118 10.4044 12.4801 10.2419 12.4801H9.50589ZM9.21151 14.9823C9.21151 14.8197 9.3433 14.6879 9.50589 14.6879H10.2419C10.4044 14.6879 10.5362 14.8197 10.5362 14.9823C10.5362 15.1449 10.4044 15.2767 10.2419 15.2767H9.50589C9.3433 15.2767 9.21151 15.1449 9.21151 14.9823ZM9.50589 16.8958C9.3433 16.8958 9.21151 17.0276 9.21151 17.1902C9.21151 17.3528 9.3433 17.4846 9.50589 17.4846H10.2419C10.4044 17.4846 10.5362 17.3528 10.5362 17.1902C10.5362 17.0276 10.4044 16.8958 10.2419 16.8958H9.50589ZM9.21151 19.3981C9.21151 19.2355 9.3433 19.1037 9.50589 19.1037H10.2419C10.4044 19.1037 10.5362 19.2355 10.5362 19.3981C10.5362 19.5607 10.4044 19.6925 10.2419 19.6925H9.50589C9.3433 19.6925 9.21151 19.5607 9.21151 19.3981Z" fill="url(#paint4_linear_53_2)"/>
<path d="M12.0082 6.88678C12.3333 6.88678 12.5969 7.15039 12.5969 7.47555V9.24185H11.4194V7.47555C11.4194 7.15039 11.683 6.88678 12.0082 6.88678Z" fill="#00AF90"/>
<path d="M12.0082 6.88678C12.3333 6.88678 12.5969 7.15039 12.5969 7.47555V9.24185H11.4194V7.47555C11.4194 7.15039 11.683 6.88678 12.0082 6.88678Z" fill="url(#paint5_linear_53_2)" fill-opacity="0.7"/>
<path d="M10.389 9.24185V8.3587C10.389 8.03353 10.1254 7.76993 9.80027 7.76993C9.47511 7.76993 9.2115 8.03353 9.2115 8.3587V9.24185H10.389Z" fill="#00AF90"/>
<path d="M10.389 9.24185V8.3587C10.389 8.03353 10.1254 7.76993 9.80027 7.76993C9.47511 7.76993 9.2115 8.03353 9.2115 8.3587V9.24185H10.389Z" fill="url(#paint6_linear_53_2)" fill-opacity="0.7"/>
<path d="M18.779 12.4801C18.779 12.0736 18.4495 11.7441 18.043 11.7441H12.7441C12.3377 11.7441 12.0082 12.0736 12.0082 12.4801V21.606H14.959V20.7197C14.8426 20.6857 14.7308 20.6307 14.6291 20.5544C13.7548 19.8993 13.1857 18.8426 13.1857 17.6508C13.1857 16.4591 13.7548 15.4024 14.6291 14.7472C14.9964 14.4719 15.4963 14.4719 15.8637 14.7472C16.738 15.4024 17.3071 16.4591 17.3071 17.6508C17.3071 18.8426 16.738 19.8993 15.8637 20.5544C15.7661 20.6276 15.6591 20.6813 15.5477 20.7156V21.606H18.779V12.4801Z" fill="#00AF90"/>
<path d="M18.779 12.4801C18.779 12.0736 18.4495 11.7441 18.043 11.7441H12.7441C12.3377 11.7441 12.0082 12.0736 12.0082 12.4801V21.606H14.959V20.7197C14.8426 20.6857 14.7308 20.6307 14.6291 20.5544C13.7548 19.8993 13.1857 18.8426 13.1857 17.6508C13.1857 16.4591 13.7548 15.4024 14.6291 14.7472C14.9964 14.4719 15.4963 14.4719 15.8637 14.7472C16.738 15.4024 17.3071 16.4591 17.3071 17.6508C17.3071 18.8426 16.738 19.8993 15.8637 20.5544C15.7661 20.6276 15.6591 20.6813 15.5477 20.7156V21.606H18.779V12.4801Z" fill="url(#paint7_linear_53_2)"/>
<path d="M15.5477 20.0597V17.9502C15.5477 17.7876 15.4159 17.6558 15.2534 17.6558C15.0908 17.6558 14.959 17.7876 14.959 17.9502V20.0703C14.2339 19.5206 13.7644 18.6415 13.7644 17.6508C13.7644 16.6541 14.2397 15.7703 14.9723 15.2213C15.1355 15.0989 15.3572 15.0989 15.5204 15.2213C16.2531 15.7703 16.7284 16.6541 16.7284 17.6508C16.7284 18.6351 16.2648 19.5093 15.5477 20.0597Z" fill="#00AF90"/>
<path d="M15.5477 20.0597V17.9502C15.5477 17.7876 15.4159 17.6558 15.2534 17.6558C15.0908 17.6558 14.959 17.7876 14.959 17.9502V20.0703C14.2339 19.5206 13.7644 18.6415 13.7644 17.6508C13.7644 16.6541 14.2397 15.7703 14.9723 15.2213C15.1355 15.0989 15.3572 15.0989 15.5204 15.2213C16.2531 15.7703 16.7284 16.6541 16.7284 17.6508C16.7284 18.6351 16.2648 19.5093 15.5477 20.0597Z" fill="url(#paint8_linear_53_2)" fill-opacity="0.7"/>
<defs>
<filter id="filter0_dd_53_2" x="0.860382" y="0.860413" width="28.3467" height="28.3467" filterUnits="userSpaceOnUse" color-interpolation-filters="sRGB">
<feFlood flood-opacity="0" result="BackgroundImageFix"/>
<feColorMatrix in="SourceAlpha" type="matrix" values="0 0 0 0 0 0 0 0 0 0 0 0 0 0 0 0 0 0 127 0" result="hardAlpha"/>
<feOffset dy="1"/>
<feGaussianBlur stdDeviation="1"/>
<feColorMatrix type="matrix" values="0 0 0 0 0.0627451 0 0 0 0 0.0941176 0 0 0 0 0.156863 0 0 0 0.06 0"/>
<feBlend mode="normal" in2="BackgroundImageFix" result="effect1_dropShadow_53_2"/>
<feColorMatrix in="SourceAlpha" type="matrix" values="0 0 0 0 0 0 0 0 0 0 0 0 0 0 0 0 0 0 127 0" result="hardAlpha"/>
<feOffset dy="1"/>
<feGaussianBlur stdDeviation="1.5"/>
<feColorMatrix type="matrix" values="0 0 0 0 0.0627451 0 0 0 0 0.0941176 0 0 0 0 0.156863 0 0 0 0.1 0"/>
<feBlend mode="normal" in2="effect1_dropShadow_53_2" result="effect2_dropShadow_53_2"/>
<feBlend mode="normal" in="SourceGraphic" in2="effect2_dropShadow_53_2" result="shape"/>
</filter>
<linearGradient id="paint0_linear_53_2" x1="15.0337" y1="2.86041" x2="15.0337" y2="25.2071" gradientUnits="userSpaceOnUse">
<stop stop-color="white"/>
<stop offset="1" stop-color="#CFCDCD"/>
</linearGradient>
<linearGradient id="paint1_linear_53_2" x1="22.6059" y1="14.1931" x2="14.9519" y2="14.1931" gradientUnits="userSpaceOnUse">
<stop stop-color="#3DC183"/>
<stop offset="0.03125" stop-color="#3DC183"/>
<stop offset="0.046875" stop-color="#3DC183"/>
<stop offset="0.0625" stop-color="#3EC283"/>
<stop offset="0.078125" stop-color="#3FC283"/>
<stop offset="0.09375" stop-color="#40C283"/>
<stop offset="0.109375" stop-color="#41C383"/>
<stop offset="0.125" stop-color="#42C383"/>
<stop offset="0.140625" stop-color="#43C483"/>
<stop offset="0.15625" stop-color="#44C483"/>
<stop offset="0.171875" stop-color="#45C583"/>
<stop offset="0.1875" stop-color="#46C583"/>
<stop offset="0.203125" stop-color="#47C683"/>
<stop offset="0.21875" stop-color="#48C683"/>
<stop offset="0.234375" stop-color="#49C783"/>
<stop offset="0.25" stop-color="#4AC783"/>
<stop offset="0.265625" stop-color="#4BC883"/>
<stop offset="0.28125" stop-color="#4CC883"/>
<stop offset="0.296875" stop-color="#4DC883"/>
<stop offset="0.3125" stop-color="#4EC983"/>
<stop offset="0.328125" stop-color="#4FC983"/>
<stop offset="0.34375" stop-color="#50CA83"/>
<stop offset="0.359375" stop-color="#51CA83"/>
<stop offset="0.375" stop-color="#52CB83"/>
<stop offset="0.390625" stop-color="#53CB83"/>
<stop offset="0.40625" stop-color="#54CC83"/>
<stop offset="0.421875" stop-color="#55CC83"/>
<stop offset="0.4375" stop-color="#56CD83"/>
<stop offset="0.453125" stop-color="#57CD83"/>
<stop offset="0.46875" stop-color="#58CD83"/>
<stop offset="0.484375" stop-color="#59CE83"/>
<stop offset="0.5" stop-color="#5ACE83"/>
<stop offset="0.515625" stop-color="#5BCF83"/>
<stop offset="0.53125" stop-color="#5CCF83"/>
<stop offset="0.546875" stop-color="#5DD083"/>
<stop offset="0.5625" stop-color="#5ED083"/>
<stop offset="0.578125" stop-color="#5FD183"/>
<stop offset="0.59375" stop-color="#60D183"/>
<stop offset="0.609375" stop-color="#61D283"/>
<stop offset="0.625" stop-color="#62D283"/>
<stop offset="0.640625" stop-color="#62D383"/>
<stop offset="0.65625" stop-color="#63D383"/>
<stop offset="0.671875" stop-color="#64D383"/>
<stop offset="0.6875" stop-color="#65D483"/>
<stop offset="0.703125" stop-color="#66D483"/>
<stop offset="0.71875" stop-color="#67D583"/>
<stop offset="0.734375" stop-color="#68D583"/>
<stop offset="0.75" stop-color="#69D683"/>
<stop offset="0.765625" stop-color="#6AD683"/>
<stop offset="0.78125" stop-color="#6BD783"/>
<stop offset="0.796875" stop-color="#6CD783"/>
<stop offset="0.8125" stop-color="#6DD883"/>
<stop offset="0.828125" stop-color="#6ED883"/>
<stop offset="0.84375" stop-color="#6FD983"/>
<stop offset="0.859375" stop-color="#70D983"/>
<stop offset="0.875" stop-color="#71D983"/>
<stop offset="0.890625" stop-color="#72DA83"/>
<stop offset="0.90625" stop-color="#73DA83"/>
<stop offset="0.921875" stop-color="#74DB83"/>
<stop offset="0.9375" stop-color="#75DB83"/>
<stop offset="0.953125" stop-color="#76DC83"/>
<stop offset="0.96875" stop-color="#77DC83"/>
<stop offset="0.984375" stop-color="#78DD83"/>
<stop offset="1" stop-color="#79DD83"/>
</linearGradient>
<linearGradient id="paint2_linear_53_2" x1="22.6059" y1="14.1931" x2="14.9519" y2="14.1931" gradientUnits="userSpaceOnUse">
<stop stop-color="#3DC183"/>
<stop offset="0.03125" stop-color="#3DC183"/>
<stop offset="0.046875" stop-color="#3DC183"/>
<stop offset="0.0625" stop-color="#3EC283"/>
<stop offset="0.078125" stop-color="#3FC283"/>
<stop offset="0.09375" stop-color="#40C283"/>
<stop offset="0.109375" stop-color="#41C383"/>
<stop offset="0.125" stop-color="#42C383"/>
<stop offset="0.140625" stop-color="#43C483"/>
<stop offset="0.15625" stop-color="#44C483"/>
<stop offset="0.171875" stop-color="#45C583"/>
<stop offset="0.1875" stop-color="#46C583"/>
<stop offset="0.203125" stop-color="#47C683"/>
<stop offset="0.21875" stop-color="#48C683"/>
<stop offset="0.234375" stop-color="#49C783"/>
<stop offset="0.25" stop-color="#4AC783"/>
<stop offset="0.265625" stop-color="#4BC883"/>
<stop offset="0.28125" stop-color="#4CC883"/>
<stop offset="0.296875" stop-color="#4DC883"/>
<stop offset="0.3125" stop-color="#4EC983"/>
<stop offset="0.328125" stop-color="#4FC983"/>
<stop offset="0.34375" stop-color="#50CA83"/>
<stop offset="0.359375" stop-color="#51CA83"/>
<stop offset="0.375" stop-color="#52CB83"/>
<stop offset="0.390625" stop-color="#53CB83"/>
<stop offset="0.40625" stop-color="#54CC83"/>
<stop offset="0.421875" stop-color="#55CC83"/>
<stop offset="0.4375" stop-color="#56CD83"/>
<stop offset="0.453125" stop-color="#57CD83"/>
<stop offset="0.46875" stop-color="#58CD83"/>
<stop offset="0.484375" stop-color="#59CE83"/>
<stop offset="0.5" stop-color="#5ACE83"/>
<stop offset="0.515625" stop-color="#5BCF83"/>
<stop offset="0.53125" stop-color="#5CCF83"/>
<stop offset="0.546875" stop-color="#5DD083"/>
<stop offset="0.5625" stop-color="#5ED083"/>
<stop offset="0.578125" stop-color="#5FD183"/>
<stop offset="0.59375" stop-color="#60D183"/>
<stop offset="0.609375" stop-color="#61D283"/>
<stop offset="0.625" stop-color="#62D283"/>
<stop offset="0.640625" stop-color="#62D383"/>
<stop offset="0.65625" stop-color="#63D383"/>
<stop offset="0.671875" stop-color="#64D383"/>
<stop offset="0.6875" stop-color="#65D483"/>
<stop offset="0.703125" stop-color="#66D483"/>
<stop offset="0.71875" stop-color="#67D583"/>
<stop offset="0.734375" stop-color="#68D583"/>
<stop offset="0.75" stop-color="#69D683"/>
<stop offset="0.765625" stop-color="#6AD683"/>
<stop offset="0.78125" stop-color="#6BD783"/>
<stop offset="0.796875" stop-color="#6CD783"/>
<stop offset="0.8125" stop-color="#6DD883"/>
<stop offset="0.828125" stop-color="#6ED883"/>
<stop offset="0.84375" stop-color="#6FD983"/>
<stop offset="0.859375" stop-color="#70D983"/>
<stop offset="0.875" stop-color="#71D983"/>
<stop offset="0.890625" stop-color="#72DA83"/>
<stop offset="0.90625" stop-color="#73DA83"/>
<stop offset="0.921875" stop-color="#74DB83"/>
<stop offset="0.9375" stop-color="#75DB83"/>
<stop offset="0.953125" stop-color="#76DC83"/>
<stop offset="0.96875" stop-color="#77DC83"/>
<stop offset="0.984375" stop-color="#78DD83"/>
<stop offset="1" stop-color="#79DD83"/>
</linearGradient>
<linearGradient id="paint3_linear_53_2" x1="13.9216" y1="15.7183" x2="7.88674" y2="15.7183" gradientUnits="userSpaceOnUse">
<stop stop-color="#3DC183"/>
<stop offset="0.03125" stop-color="#3DC183"/>
<stop offset="0.046875" stop-color="#3DC183"/>
<stop offset="0.0625" stop-color="#3EC283"/>
<stop offset="0.078125" stop-color="#3FC283"/>
<stop offset="0.09375" stop-color="#40C283"/>
<stop offset="0.109375" stop-color="#41C383"/>
<stop offset="0.125" stop-color="#42C383"/>
<stop offset="0.140625" stop-color="#43C483"/>
<stop offset="0.15625" stop-color="#44C483"/>
<stop offset="0.171875" stop-color="#45C583"/>
<stop offset="0.1875" stop-color="#46C583"/>
<stop offset="0.203125" stop-color="#47C683"/>
<stop offset="0.21875" stop-color="#48C683"/>
<stop offset="0.234375" stop-color="#49C783"/>
<stop offset="0.25" stop-color="#4AC783"/>
<stop offset="0.265625" stop-color="#4BC883"/>
<stop offset="0.28125" stop-color="#4CC883"/>
<stop offset="0.296875" stop-color="#4DC883"/>
<stop offset="0.3125" stop-color="#4EC983"/>
<stop offset="0.328125" stop-color="#4FC983"/>
<stop offset="0.34375" stop-color="#50CA83"/>
<stop offset="0.359375" stop-color="#51CA83"/>
<stop offset="0.375" stop-color="#52CB83"/>
<stop offset="0.390625" stop-color="#53CB83"/>
<stop offset="0.40625" stop-color="#54CC83"/>
<stop offset="0.421875" stop-color="#55CC83"/>
<stop offset="0.4375" stop-color="#56CD83"/>
<stop offset="0.453125" stop-color="#57CD83"/>
<stop offset="0.46875" stop-color="#58CD83"/>
<stop offset="0.484375" stop-color="#59CE83"/>
<stop offset="0.5" stop-color="#5ACE83"/>
<stop offset="0.515625" stop-color="#5BCF83"/>
<stop offset="0.53125" stop-color="#5CCF83"/>
<stop offset="0.546875" stop-color="#5DD083"/>
<stop offset="0.5625" stop-color="#5ED083"/>
<stop offset="0.578125" stop-color="#5FD183"/>
<stop offset="0.59375" stop-color="#60D183"/>
<stop offset="0.609375" stop-color="#61D283"/>
<stop offset="0.625" stop-color="#62D283"/>
<stop offset="0.640625" stop-color="#62D383"/>
<stop offset="0.65625" stop-color="#63D383"/>
<stop offset="0.671875" stop-color="#64D383"/>
<stop offset="0.6875" stop-color="#65D483"/>
<stop offset="0.703125" stop-color="#66D483"/>
<stop offset="0.71875" stop-color="#67D583"/>
<stop offset="0.734375" stop-color="#68D583"/>
<stop offset="0.75" stop-color="#69D683"/>
<stop offset="0.765625" stop-color="#6AD683"/>
<stop offset="0.78125" stop-color="#6BD783"/>
<stop offset="0.796875" stop-color="#6CD783"/>
<stop offset="0.8125" stop-color="#6DD883"/>
<stop offset="0.828125" stop-color="#6ED883"/>
<stop offset="0.84375" stop-color="#6FD983"/>
<stop offset="0.859375" stop-color="#70D983"/>
<stop offset="0.875" stop-color="#71D983"/>
<stop offset="0.890625" stop-color="#72DA83"/>
<stop offset="0.90625" stop-color="#73DA83"/>
<stop offset="0.921875" stop-color="#74DB83"/>
<stop offset="0.9375" stop-color="#75DB83"/>
<stop offset="0.953125" stop-color="#76DC83"/>
<stop offset="0.96875" stop-color="#77DC83"/>
<stop offset="0.984375" stop-color="#78DD83"/>
<stop offset="1" stop-color="#79DD83"/>
</linearGradient>
<linearGradient id="paint4_linear_53_2" x1="13.9216" y1="15.7183" x2="7.88674" y2="15.7183" gradientUnits="userSpaceOnUse">
<stop stop-color="#3DC183"/>
<stop offset="0.03125" stop-color="#3DC183"/>
<stop offset="0.046875" stop-color="#3DC183"/>
<stop offset="0.0625" stop-color="#3EC283"/>
<stop offset="0.078125" stop-color="#3FC283"/>
<stop offset="0.09375" stop-color="#40C283"/>
<stop offset="0.109375" stop-color="#41C383"/>
<stop offset="0.125" stop-color="#42C383"/>
<stop offset="0.140625" stop-color="#43C483"/>
<stop offset="0.15625" stop-color="#44C483"/>
<stop offset="0.171875" stop-color="#45C583"/>
<stop offset="0.1875" stop-color="#46C583"/>
<stop offset="0.203125" stop-color="#47C683"/>
<stop offset="0.21875" stop-color="#48C683"/>
<stop offset="0.234375" stop-color="#49C783"/>
<stop offset="0.25" stop-color="#4AC783"/>
<stop offset="0.265625" stop-color="#4BC883"/>
<stop offset="0.28125" stop-color="#4CC883"/>
<stop offset="0.296875" stop-color="#4DC883"/>
<stop offset="0.3125" stop-color="#4EC983"/>
<stop offset="0.328125" stop-color="#4FC983"/>
<stop offset="0.34375" stop-color="#50CA83"/>
<stop offset="0.359375" stop-color="#51CA83"/>
<stop offset="0.375" stop-color="#52CB83"/>
<stop offset="0.390625" stop-color="#53CB83"/>
<stop offset="0.40625" stop-color="#54CC83"/>
<stop offset="0.421875" stop-color="#55CC83"/>
<stop offset="0.4375" stop-color="#56CD83"/>
<stop offset="0.453125" stop-color="#57CD83"/>
<stop offset="0.46875" stop-color="#58CD83"/>
<stop offset="0.484375" stop-color="#59CE83"/>
<stop offset="0.5" stop-color="#5ACE83"/>
<stop offset="0.515625" stop-color="#5BCF83"/>
<stop offset="0.53125" stop-color="#5CCF83"/>
<stop offset="0.546875" stop-color="#5DD083"/>
<stop offset="0.5625" stop-color="#5ED083"/>
<stop offset="0.578125" stop-color="#5FD183"/>
<stop offset="0.59375" stop-color="#60D183"/>
<stop offset="0.609375" stop-color="#61D283"/>
<stop offset="0.625" stop-color="#62D283"/>
<stop offset="0.640625" stop-color="#62D383"/>
<stop offset="0.65625" stop-color="#63D383"/>
<stop offset="0.671875" stop-color="#64D383"/>
<stop offset="0.6875" stop-color="#65D483"/>
<stop offset="0.703125" stop-color="#66D483"/>
<stop offset="0.71875" stop-color="#67D583"/>
<stop offset="0.734375" stop-color="#68D583"/>
<stop offset="0.75" stop-color="#69D683"/>
<stop offset="0.765625" stop-color="#6AD683"/>
<stop offset="0.78125" stop-color="#6BD783"/>
<stop offset="0.796875" stop-color="#6CD783"/>
<stop offset="0.8125" stop-color="#6DD883"/>
<stop offset="0.828125" stop-color="#6ED883"/>
<stop offset="0.84375" stop-color="#6FD983"/>
<stop offset="0.859375" stop-color="#70D983"/>
<stop offset="0.875" stop-color="#71D983"/>
<stop offset="0.890625" stop-color="#72DA83"/>
<stop offset="0.90625" stop-color="#73DA83"/>
<stop offset="0.921875" stop-color="#74DB83"/>
<stop offset="0.9375" stop-color="#75DB83"/>
<stop offset="0.953125" stop-color="#76DC83"/>
<stop offset="0.96875" stop-color="#77DC83"/>
<stop offset="0.984375" stop-color="#78DD83"/>
<stop offset="1" stop-color="#79DD83"/>
</linearGradient>
<linearGradient id="paint5_linear_53_2" x1="15.2464" y1="6.78021" x2="15.2464" y2="21.606" gradientUnits="userSpaceOnUse">
<stop stop-color="#77C852"/>
<stop offset="1" stop-color="#77C852" stop-opacity="0"/>
</linearGradient>
<linearGradient id="paint6_linear_53_2" x1="15.2464" y1="6.78021" x2="15.2464" y2="21.606" gradientUnits="userSpaceOnUse">
<stop stop-color="#77C852"/>
<stop offset="1" stop-color="#77C852" stop-opacity="0"/>
</linearGradient>
<linearGradient id="paint7_linear_53_2" x1="18.7789" y1="16.6751" x2="12.0081" y2="16.6751" gradientUnits="userSpaceOnUse">
<stop stop-color="#3DC183"/>
<stop offset="0.03125" stop-color="#3DC183"/>
<stop offset="0.046875" stop-color="#3DC183"/>
<stop offset="0.0625" stop-color="#3EC283"/>
<stop offset="0.078125" stop-color="#3FC283"/>
<stop offset="0.09375" stop-color="#40C283"/>
<stop offset="0.109375" stop-color="#41C383"/>
<stop offset="0.125" stop-color="#42C383"/>
<stop offset="0.140625" stop-color="#43C483"/>
<stop offset="0.15625" stop-color="#44C483"/>
<stop offset="0.171875" stop-color="#45C583"/>
<stop offset="0.1875" stop-color="#46C583"/>
<stop offset="0.203125" stop-color="#47C683"/>
<stop offset="0.21875" stop-color="#48C683"/>
<stop offset="0.234375" stop-color="#49C783"/>
<stop offset="0.25" stop-color="#4AC783"/>
<stop offset="0.265625" stop-color="#4BC883"/>
<stop offset="0.28125" stop-color="#4CC883"/>
<stop offset="0.296875" stop-color="#4DC883"/>
<stop offset="0.3125" stop-color="#4EC983"/>
<stop offset="0.328125" stop-color="#4FC983"/>
<stop offset="0.34375" stop-color="#50CA83"/>
<stop offset="0.359375" stop-color="#51CA83"/>
<stop offset="0.375" stop-color="#52CB83"/>
<stop offset="0.390625" stop-color="#53CB83"/>
<stop offset="0.40625" stop-color="#54CC83"/>
<stop offset="0.421875" stop-color="#55CC83"/>
<stop offset="0.4375" stop-color="#56CD83"/>
<stop offset="0.453125" stop-color="#57CD83"/>
<stop offset="0.46875" stop-color="#58CD83"/>
<stop offset="0.484375" stop-color="#59CE83"/>
<stop offset="0.5" stop-color="#5ACE83"/>
<stop offset="0.515625" stop-color="#5BCF83"/>
<stop offset="0.53125" stop-color="#5CCF83"/>
<stop offset="0.546875" stop-color="#5DD083"/>
<stop offset="0.5625" stop-color="#5ED083"/>
<stop offset="0.578125" stop-color="#5FD183"/>
<stop offset="0.59375" stop-color="#60D183"/>
<stop offset="0.609375" stop-color="#61D283"/>
<stop offset="0.625" stop-color="#62D283"/>
<stop offset="0.640625" stop-color="#62D383"/>
<stop offset="0.65625" stop-color="#63D383"/>
<stop offset="0.671875" stop-color="#64D383"/>
<stop offset="0.6875" stop-color="#65D483"/>
<stop offset="0.703125" stop-color="#66D483"/>
<stop offset="0.71875" stop-color="#67D583"/>
<stop offset="0.734375" stop-color="#68D583"/>
<stop offset="0.75" stop-color="#69D683"/>
<stop offset="0.765625" stop-color="#6AD683"/>
<stop offset="0.78125" stop-color="#6BD783"/>
<stop offset="0.796875" stop-color="#6CD783"/>
<stop offset="0.8125" stop-color="#6DD883"/>
<stop offset="0.828125" stop-color="#6ED883"/>
<stop offset="0.84375" stop-color="#6FD983"/>
<stop offset="0.859375" stop-color="#70D983"/>
<stop offset="0.875" stop-color="#71D983"/>
<stop offset="0.890625" stop-color="#72DA83"/>
<stop offset="0.90625" stop-color="#73DA83"/>
<stop offset="0.921875" stop-color="#74DB83"/>
<stop offset="0.9375" stop-color="#75DB83"/>
<stop offset="0.953125" stop-color="#76DC83"/>
<stop offset="0.96875" stop-color="#77DC83"/>
<stop offset="0.984375" stop-color="#78DD83"/>
<stop offset="1" stop-color="#79DD83"/>
</linearGradient>
<linearGradient id="paint8_linear_53_2" x1="15.2464" y1="6.7802" x2="15.2464" y2="21.606" gradientUnits="userSpaceOnUse">
<stop stop-color="#77C852"/>
<stop offset="1" stop-color="#77C852" stop-opacity="0"/>
</linearGradient>
</defs>
</svg>
