<svg width="156" height="29" viewBox="0 0 156 29" fill="none" xmlns="http://www.w3.org/2000/svg">
<path d="M41.0171 15.3704L43.4171 17.0904C42.0371 19.2704 39.6371 20.7104 36.8771 20.7104C32.6171 20.7104 29.2171 17.2704 29.2171 13.0104C29.2171 8.75041 32.6171 5.29041 36.8571 5.29041C39.5771 5.29041 41.9771 6.73041 43.2971 8.91041L40.8771 10.6304C39.8571 9.03041 38.3571 8.25041 36.8771 8.25041C34.3771 8.25041 32.3971 10.3704 32.3971 13.0104C32.3971 15.6304 34.3771 17.7504 36.8771 17.7504C38.4171 17.7504 39.9371 16.9704 41.0171 15.3704ZM44.8468 5.55041H47.6868V20.4504H44.8468V5.55041ZM56.9305 16.8304L59.1905 18.5704C58.3305 19.8504 56.5505 20.6704 54.7505 20.6704C51.7105 20.6704 49.2705 18.2904 49.2705 15.4104C49.2705 12.4904 51.6105 10.1304 54.5105 10.1304C57.0105 10.1304 58.9305 11.8104 59.5505 13.6904L53.9105 17.7304C54.1705 17.8304 54.4505 17.8504 54.7505 17.8504C55.6105 17.8504 56.4705 17.5504 56.9305 16.8304ZM52.1505 15.4104C52.1505 15.6504 52.1705 15.8704 52.2305 16.0704L55.9105 13.4504C55.5105 13.1504 55.0505 12.9704 54.5105 12.9704C53.2105 12.9704 52.1505 13.9904 52.1505 15.4104ZM67.9796 10.3504H70.8196V20.4504H67.9796V19.7304C67.5396 20.3104 66.4396 20.6704 65.5196 20.6704C62.7596 20.6704 60.5596 18.2904 60.5596 15.4104C60.5596 12.4904 62.8196 10.1304 65.5196 10.1304C66.4196 10.1304 67.5396 10.5704 67.9796 11.0504V10.3504ZM65.7996 17.8504C67.1196 17.8504 68.0996 16.8504 68.0996 15.4104C68.0996 13.9904 67.1196 12.9704 65.7996 12.9704C64.4996 12.9704 63.4396 13.9904 63.4396 15.4104C63.4396 16.8504 64.4996 17.8504 65.7996 17.8504ZM82.9955 15.4104V20.4504H80.1755V15.4104C80.1755 13.7904 79.2355 12.9704 78.0755 12.9704C76.8155 12.9704 75.6555 13.7904 75.6555 15.4104V20.4504H72.8155V10.3504H75.6555V11.0504C76.2155 10.4104 77.3955 10.1304 78.3155 10.1304C81.0755 10.1304 82.9955 12.4904 82.9955 15.4104ZM93.2068 11.3104L101.147 5.29041V20.4504H98.0468V11.4704L93.2068 14.9704L88.3668 11.4704V20.4504H85.2668V5.29041L93.2068 11.3104ZM110.558 10.3504H113.398V20.4504H110.558V19.7304C110.118 20.3104 109.018 20.6704 108.098 20.6704C105.338 20.6704 103.138 18.2904 103.138 15.4104C103.138 12.4904 105.398 10.1304 108.098 10.1304C108.998 10.1304 110.118 10.5704 110.558 11.0504V10.3504ZM108.378 17.8504C109.698 17.8504 110.678 16.8504 110.678 15.4104C110.678 13.9904 109.698 12.9704 108.378 12.9704C107.078 12.9704 106.018 13.9904 106.018 15.4104C106.018 16.8504 107.078 17.8504 108.378 17.8504ZM122.394 5.55041H125.234V20.4504H122.394V19.7304C121.954 20.3104 120.854 20.6704 119.934 20.6704C117.174 20.6704 114.974 18.2904 114.974 15.4104C114.974 12.4904 117.234 10.1304 119.934 10.1304C120.834 10.1304 121.954 10.5704 122.394 11.0504V5.55041ZM120.214 17.8504C121.534 17.8504 122.514 16.8504 122.514 15.4104C122.514 13.9904 121.534 12.9704 120.214 12.9704C118.914 12.9704 117.854 13.9904 117.854 15.4104C117.854 16.8504 118.914 17.8504 120.214 17.8504ZM128.63 8.57041C127.75 8.57041 126.99 7.83041 126.99 6.95041C126.99 6.15041 127.75 5.39041 128.63 5.39041C129.59 5.39041 130.33 6.13041 130.33 6.95041C130.33 7.83041 129.59 8.57041 128.63 8.57041ZM130.07 10.3504V20.4504H127.23V10.3504H130.07ZM142.253 15.4104V20.4504H139.433V15.4104C139.433 13.7904 138.493 12.9704 137.333 12.9704C136.073 12.9704 134.913 13.7904 134.913 15.4104V20.4504H132.073V10.3504H134.913V11.0504C135.473 10.4104 136.653 10.1304 137.573 10.1304C140.333 10.1304 142.253 12.4904 142.253 15.4104ZM151.105 10.3504H153.945V20.4504H151.105V19.7304C150.665 20.3104 149.565 20.6704 148.645 20.6704C145.885 20.6704 143.685 18.2904 143.685 15.4104C143.685 12.4904 145.945 10.1304 148.645 10.1304C149.545 10.1304 150.665 10.5704 151.105 11.0504V10.3504ZM148.925 17.8504C150.245 17.8504 151.225 16.8504 151.225 15.4104C151.225 13.9904 150.245 12.9704 148.925 12.9704C147.625 12.9704 146.565 13.9904 146.565 15.4104C146.565 16.8504 147.625 17.8504 148.925 17.8504Z" fill="#424242"/>
<g filter="url(#filter0_dd_53_2)">
<path d="M20.2597 2.38123H9.26817C6.27088 2.38123 3.84109 4.81101 3.84109 7.8083V18.7999C3.84109 21.7971 6.27088 24.2269 9.26817 24.2269H20.2597C23.257 24.2269 25.6868 21.7971 25.6868 18.7999V7.8083C25.6868 4.81101 23.257 2.38123 20.2597 2.38123Z" fill="#424242"/>
<path d="M20.2597 2.38123H9.26817C6.27088 2.38123 3.84109 4.81101 3.84109 7.8083V18.7999C3.84109 21.7971 6.27088 24.2269 9.26817 24.2269H20.2597C23.257 24.2269 25.6868 21.7971 25.6868 18.7999V7.8083C25.6868 4.81101 23.257 2.38123 20.2597 2.38123Z" fill="url(#paint0_linear_53_2)"/>
</g>
<path fill-rule="evenodd" clip-rule="evenodd" d="M21.7508 5.12708C22.2625 4.93027 22.8125 5.30799 22.8125 5.85626V20.0312C22.8125 20.4626 22.4627 20.8125 22.0312 20.8125H19.375V11.125C19.375 10.3483 18.7454 9.71874 17.9688 9.71874H14.6875V8.3803C14.6875 8.05704 14.8866 7.76716 15.1883 7.65112L21.7508 5.12708ZM20.9375 8.62499C20.7648 8.62499 20.625 8.7649 20.625 8.93749C20.625 9.11008 20.7648 9.24999 20.9375 9.24999H21.7188C21.8914 9.24999 22.0312 9.11008 22.0312 8.93749C22.0312 8.7649 21.8914 8.62499 21.7188 8.62499H20.9375ZM20.625 11.2812C20.625 11.1086 20.7648 10.9687 20.9375 10.9687H21.7188C21.8914 10.9687 22.0312 11.1086 22.0312 11.2812C22.0312 11.4538 21.8914 11.5937 21.7188 11.5937H20.9375C20.7648 11.5937 20.625 11.4538 20.625 11.2812ZM20.9375 13.3125C20.7648 13.3125 20.625 13.4524 20.625 13.625C20.625 13.7976 20.7648 13.9375 20.9375 13.9375H21.7188C21.8914 13.9375 22.0312 13.7976 22.0312 13.625C22.0312 13.4524 21.8914 13.3125 21.7188 13.3125H20.9375ZM20.625 15.9687C20.625 15.7961 20.7648 15.6562 20.9375 15.6562H21.7188C21.8914 15.6562 22.0312 15.7961 22.0312 15.9687C22.0312 16.1413 21.8914 16.2812 21.7188 16.2812H20.9375C20.7648 16.2812 20.625 16.1413 20.625 15.9687ZM20.9375 18C20.7648 18 20.625 18.1399 20.625 18.3125C20.625 18.4851 20.7648 18.625 20.9375 18.625H21.7188C21.8914 18.625 22.0312 18.4851 22.0312 18.3125C22.0312 18.1399 21.8914 18 21.7188 18H20.9375Z" fill="#00CE6D"/>
<path fill-rule="evenodd" clip-rule="evenodd" d="M21.7508 5.12708C22.2625 4.93027 22.8125 5.30799 22.8125 5.85626V20.0312C22.8125 20.4626 22.4627 20.8125 22.0312 20.8125H19.375V11.125C19.375 10.3483 18.7454 9.71874 17.9688 9.71874H14.6875V8.3803C14.6875 8.05704 14.8866 7.76716 15.1883 7.65112L21.7508 5.12708ZM20.9375 8.62499C20.7648 8.62499 20.625 8.7649 20.625 8.93749C20.625 9.11008 20.7648 9.24999 20.9375 9.24999H21.7188C21.8914 9.24999 22.0312 9.11008 22.0312 8.93749C22.0312 8.7649 21.8914 8.62499 21.7188 8.62499H20.9375ZM20.625 11.2812C20.625 11.1086 20.7648 10.9687 20.9375 10.9687H21.7188C21.8914 10.9687 22.0312 11.1086 22.0312 11.2812C22.0312 11.4538 21.8914 11.5937 21.7188 11.5937H20.9375C20.7648 11.5937 20.625 11.4538 20.625 11.2812ZM20.9375 13.3125C20.7648 13.3125 20.625 13.4524 20.625 13.625C20.625 13.7976 20.7648 13.9375 20.9375 13.9375H21.7188C21.8914 13.9375 22.0312 13.7976 22.0312 13.625C22.0312 13.4524 21.8914 13.3125 21.7188 13.3125H20.9375ZM20.625 15.9687C20.625 15.7961 20.7648 15.6562 20.9375 15.6562H21.7188C21.8914 15.6562 22.0312 15.7961 22.0312 15.9687C22.0312 16.1413 21.8914 16.2812 21.7188 16.2812H20.9375C20.7648 16.2812 20.625 16.1413 20.625 15.9687ZM20.9375 18C20.7648 18 20.625 18.1399 20.625 18.3125C20.625 18.4851 20.7648 18.625 20.9375 18.625H21.7188C21.8914 18.625 22.0312 18.4851 22.0312 18.3125C22.0312 18.1399 21.8914 18 21.7188 18H20.9375Z" fill="#00CE6D"/>
<path fill-rule="evenodd" clip-rule="evenodd" d="M12.3438 9.71875H13.5938V9.09375C13.5938 8.66228 13.244 8.3125 12.8125 8.3125H7.96875C7.53728 8.3125 7.1875 8.66228 7.1875 9.09375V20.0312C7.1875 20.4627 7.53728 20.8125 7.96875 20.8125H10.9375V11.125C10.9375 10.3483 11.5671 9.71875 12.3438 9.71875ZM8.90625 11.125C8.73366 11.125 8.59375 11.2649 8.59375 11.4375C8.59375 11.6101 8.73366 11.75 8.90625 11.75H9.6875C9.86009 11.75 10 11.6101 10 11.4375C10 11.2649 9.86009 11.125 9.6875 11.125H8.90625ZM8.59375 13.7812C8.59375 13.6087 8.73366 13.4688 8.90625 13.4688H9.6875C9.86009 13.4688 10 13.6087 10 13.7812C10 13.9538 9.86009 14.0938 9.6875 14.0938H8.90625C8.73366 14.0938 8.59375 13.9538 8.59375 13.7812ZM8.90625 15.8125C8.73366 15.8125 8.59375 15.9524 8.59375 16.125C8.59375 16.2976 8.73366 16.4375 8.90625 16.4375H9.6875C9.86009 16.4375 10 16.2976 10 16.125C10 15.9524 9.86009 15.8125 9.6875 15.8125H8.90625ZM8.59375 18.4688C8.59375 18.2962 8.73366 18.1562 8.90625 18.1562H9.6875C9.86009 18.1562 10 18.2962 10 18.4688C10 18.6414 9.86009 18.7812 9.6875 18.7812H8.90625C8.73366 18.7812 8.59375 18.6414 8.59375 18.4688Z" fill="#00CE6D"/>
<path fill-rule="evenodd" clip-rule="evenodd" d="M12.3438 9.71875H13.5938V9.09375C13.5938 8.66228 13.244 8.3125 12.8125 8.3125H7.96875C7.53728 8.3125 7.1875 8.66228 7.1875 9.09375V20.0312C7.1875 20.4627 7.53728 20.8125 7.96875 20.8125H10.9375V11.125C10.9375 10.3483 11.5671 9.71875 12.3438 9.71875ZM8.90625 11.125C8.73366 11.125 8.59375 11.2649 8.59375 11.4375C8.59375 11.6101 8.73366 11.75 8.90625 11.75H9.6875C9.86009 11.75 10 11.6101 10 11.4375C10 11.2649 9.86009 11.125 9.6875 11.125H8.90625ZM8.59375 13.7812C8.59375 13.6087 8.73366 13.4688 8.90625 13.4688H9.6875C9.86009 13.4688 10 13.6087 10 13.7812C10 13.9538 9.86009 14.0938 9.6875 14.0938H8.90625C8.73366 14.0938 8.59375 13.9538 8.59375 13.7812ZM8.90625 15.8125C8.73366 15.8125 8.59375 15.9524 8.59375 16.125C8.59375 16.2976 8.73366 16.4375 8.90625 16.4375H9.6875C9.86009 16.4375 10 16.2976 10 16.125C10 15.9524 9.86009 15.8125 9.6875 15.8125H8.90625ZM8.59375 18.4688C8.59375 18.2962 8.73366 18.1562 8.90625 18.1562H9.6875C9.86009 18.1562 10 18.2962 10 18.4688C10 18.6414 9.86009 18.7812 9.6875 18.7812H8.90625C8.73366 18.7812 8.59375 18.6414 8.59375 18.4688Z" fill="#00CE6D"/>
<path d="M11.5625 5.1875C11.9077 5.1875 12.1875 5.46733 12.1875 5.8125V7.6875H10.9375V5.8125C10.9375 5.46733 11.2173 5.1875 11.5625 5.1875Z" fill="#00AF90"/>
<path d="M11.5625 5.1875C11.9077 5.1875 12.1875 5.46733 12.1875 5.8125V7.6875H10.9375V5.8125C10.9375 5.46733 11.2173 5.1875 11.5625 5.1875Z" fill="url(#paint1_linear_53_2)" fill-opacity="0.7"/>
<path d="M9.84375 7.6875V6.75C9.84375 6.40483 9.56392 6.125 9.21875 6.125C8.87358 6.125 8.59375 6.40483 8.59375 6.75V7.6875H9.84375Z" fill="#00AF90"/>
<path d="M9.84375 7.6875V6.75C9.84375 6.40483 9.56392 6.125 9.21875 6.125C8.87358 6.125 8.59375 6.40483 8.59375 6.75V7.6875H9.84375Z" fill="url(#paint2_linear_53_2)" fill-opacity="0.7"/>
<path d="M18.75 11.125C18.75 10.6935 18.4002 10.3438 17.9688 10.3438H12.3438C11.9123 10.3438 11.5625 10.6935 11.5625 11.125V20.8125H14.6949V19.8717C14.5714 19.8356 14.4527 19.7772 14.3447 19.6962C13.4166 19.0008 12.8125 17.8791 12.8125 16.614C12.8125 15.3489 13.4166 14.2272 14.3447 13.5317C14.7347 13.2394 15.2653 13.2394 15.6553 13.5317C16.5834 14.2272 17.1875 15.3489 17.1875 16.614C17.1875 17.8791 16.5834 19.0008 15.6553 19.6962C15.5517 19.7739 15.4381 19.8309 15.3199 19.8673V20.8125H18.75V11.125Z" fill="#00AF90"/>
<path d="M18.75 11.125C18.75 10.6935 18.4002 10.3438 17.9688 10.3438H12.3438C11.9123 10.3438 11.5625 10.6935 11.5625 11.125V20.8125H14.6949V19.8717C14.5714 19.8356 14.4527 19.7772 14.3447 19.6962C13.4166 19.0008 12.8125 17.8791 12.8125 16.614C12.8125 15.3489 13.4166 14.2272 14.3447 13.5317C14.7347 13.2394 15.2653 13.2394 15.6553 13.5317C16.5834 14.2272 17.1875 15.3489 17.1875 16.614C17.1875 17.8791 16.5834 19.0008 15.6553 19.6962C15.5517 19.7739 15.4381 19.8309 15.3199 19.8673V20.8125H18.75V11.125Z" fill="#028C4C"/>
<path d="M15.3199 19.1711V16.9318C15.3199 16.7592 15.18 16.6193 15.0074 16.6193C14.8348 16.6193 14.6949 16.7592 14.6949 16.9318V19.1823C13.9252 18.5988 13.4268 17.6656 13.4268 16.614C13.4268 15.5559 13.9314 14.6177 14.7091 14.0349C14.8823 13.905 15.1177 13.905 15.2909 14.0349C16.0686 14.6177 16.5732 15.5559 16.5732 16.614C16.5732 17.6589 16.0811 18.5868 15.3199 19.1711Z" fill="#00AF90"/>
<path d="M15.3199 19.1711V16.9318C15.3199 16.7592 15.18 16.6193 15.0074 16.6193C14.8348 16.6193 14.6949 16.7592 14.6949 16.9318V19.1823C13.9252 18.5988 13.4268 17.6656 13.4268 16.614C13.4268 15.5559 13.9314 14.6177 14.7091 14.0349C14.8823 13.905 15.1177 13.905 15.2909 14.0349C16.0686 14.6177 16.5732 15.5559 16.5732 16.614C16.5732 17.6589 16.0811 18.5868 15.3199 19.1711Z" fill="url(#paint3_linear_53_2)" fill-opacity="0.7"/>
<defs>
<filter id="filter0_dd_53_2" x="0.841095" y="0.381226" width="27.8457" height="27.8457" filterUnits="userSpaceOnUse" color-interpolation-filters="sRGB">
<feFlood flood-opacity="0" result="BackgroundImageFix"/>
<feColorMatrix in="SourceAlpha" type="matrix" values="0 0 0 0 0 0 0 0 0 0 0 0 0 0 0 0 0 0 127 0" result="hardAlpha"/>
<feOffset dy="1"/>
<feGaussianBlur stdDeviation="1"/>
<feColorMatrix type="matrix" values="0 0 0 0 0.0627451 0 0 0 0 0.0941176 0 0 0 0 0.156863 0 0 0 0.06 0"/>
<feBlend mode="normal" in2="BackgroundImageFix" result="effect1_dropShadow_53_2"/>
<feColorMatrix in="SourceAlpha" type="matrix" values="0 0 0 0 0 0 0 0 0 0 0 0 0 0 0 0 0 0 127 0" result="hardAlpha"/>
<feOffset dy="1"/>
<feGaussianBlur stdDeviation="1.5"/>
<feColorMatrix type="matrix" values="0 0 0 0 0.0627451 0 0 0 0 0.0941176 0 0 0 0 0.156863 0 0 0 0.1 0"/>
<feBlend mode="normal" in2="effect1_dropShadow_53_2" result="effect2_dropShadow_53_2"/>
<feBlend mode="normal" in="SourceGraphic" in2="effect2_dropShadow_53_2" result="shape"/>
</filter>
<linearGradient id="paint0_linear_53_2" x1="14.7639" y1="2.38123" x2="14.7639" y2="24.2269" gradientUnits="userSpaceOnUse">
<stop stop-color="white"/>
<stop offset="1" stop-color="#CFCDCD"/>
</linearGradient>
<linearGradient id="paint1_linear_53_2" x1="15" y1="5.07437" x2="15" y2="20.8125" gradientUnits="userSpaceOnUse">
<stop stop-color="#77C852"/>
<stop offset="1" stop-color="#77C852" stop-opacity="0"/>
</linearGradient>
<linearGradient id="paint2_linear_53_2" x1="15" y1="5.07438" x2="15" y2="20.8125" gradientUnits="userSpaceOnUse">
<stop stop-color="#77C852"/>
<stop offset="1" stop-color="#77C852" stop-opacity="0"/>
</linearGradient>
<linearGradient id="paint3_linear_53_2" x1="15" y1="5.07438" x2="15" y2="20.8125" gradientUnits="userSpaceOnUse">
<stop stop-color="#77C852"/>
<stop offset="1" stop-color="#77C852" stop-opacity="0"/>
</linearGradient>
</defs>
</svg>
